<?xml version="1.0" standalone="no"?>
<!DOCTYPE svg PUBLIC "-//W3C//DTD SVG 20010904//EN"
 "http://www.w3.org/TR/2001/REC-SVG-20010904/DTD/svg10.dtd">
<svg version="1.0" xmlns="http://www.w3.org/2000/svg"
 width="1157.000000pt" height="1157.000000pt" viewBox="0 0 1157.000000 1157.000000"
 preserveAspectRatio="xMidYMid meet">
<metadata>
Created by potrace 1.11, written by Peter Selinger 2001-2013
</metadata>
<g transform="translate(0.000000,1157.000000) scale(0.100000,-0.100000)"
fill="#000000" stroke="none">
<path d="M5705 11544 c-117 -62 -403 -220 -575 -318 -101 -58 -188 -106 -192
-106 -26 0 5 -64 100 -205 235 -348 496 -731 516 -757 12 -15 27 -27 34 -27
27 -2 555 1148 564 1229 3 20 -18 34 -177 116 -99 52 -189 94 -200 94 -11 0
-43 -12 -70 -26z"/>
<path d="M6219 11088 c-154 -307 -540 -1131 -535 -1143 3 -10 124 -187 670
-985 467 -684 826 -1190 874 -1233 19 -18 21 -16 70 70 134 238 516 937 874
1603 273 507 332 619 327 625 -7 6 -2153 1257 -2165 1262 -9 3 -49 -67 -115
-199z"/>
<path d="M4660 10948 c-52 -28 -135 -74 -185 -103 -49 -29 -436 -254 -860
-500 -423 -247 -1202 -700 -1730 -1008 -528 -308 -990 -578 -1026 -599 l-66
-38 -7 -92 c-3 -50 -6 -170 -6 -267 l0 -176 521 -635 c1311 -1597 1920 -2330
1935 -2330 47 0 179 265 904 1815 591 1264 1360 2922 1360 2933 0 6 -42 71
-93 144 -51 73 -183 261 -292 418 -215 308 -325 459 -347 477 -11 9 -34 1
-108 -39z"/>
<path d="M8628 9908 c-84 -129 -1208 -2196 -1279 -2352 -9 -20 62 -129 637
-972 1243 -1823 1830 -2673 1851 -2681 41 -16 98 78 657 1091 l286 519 -2
1591 -3 1591 -425 249 c-654 382 -1536 894 -1626 942 l-81 44 -15 -22z"/>
<path d="M5577 9703 c-192 -380 -1416 -2984 -2029 -4317 -155 -339 -177 -391
-165 -405 8 -9 182 -218 388 -466 697 -840 1006 -1210 1028 -1229 13 -12 25
-16 31 -10 15 16 320 570 1075 1954 646 1184 1183 2161 1243 2259 l21 34 -38
51 c-63 85 -272 388 -591 856 -569 834 -904 1310 -927 1318 -7 2 -23 -18 -36
-45z"/>
<path d="M787 7568 c-9 -417 -9 -2716 0 -3834 l6 -869 221 -130 c383 -224 854
-495 870 -501 18 -7 -10 -63 431 876 281 600 496 1064 754 1628 l120 263 -772
942 c-1248 1525 -1599 1947 -1617 1947 -4 0 -10 -145 -13 -322z"/>
<path d="M7183 7268 c-79 -134 -77 -131 -1153 -2108 -507 -932 -965 -1771
-1017 -1864 -51 -93 -92 -172 -91 -177 7 -19 1687 -2058 1925 -2337 l114 -132
67 37 c73 40 703 405 1273 736 344 201 357 209 381 255 272 505 1029 1888
1089 1988 l18 30 -56 80 c-31 43 -360 522 -731 1064 -1349 1968 -1732 2522
-1748 2527 -6 2 -38 -43 -71 -99z"/>
<path d="M10697 5068 c-244 -433 -747 -1363 -744 -1372 3 -7 44 -66 92 -131
48 -66 191 -270 317 -453 127 -183 233 -334 237 -336 4 -3 46 18 94 46 l87 50
0 1164 c0 640 -2 1164 -4 1164 -3 0 -39 -60 -79 -132z"/>
<path d="M3225 4689 c-145 -288 -528 -1098 -820 -1729 -267 -580 -348 -776
-338 -822 4 -18 214 -144 833 -503 206 -120 438 -255 515 -300 182 -107 242
-137 268 -133 15 2 36 27 68 83 81 143 511 929 734 1345 119 223 226 421 237
441 l20 36 -498 609 c-274 335 -588 716 -698 848 -111 131 -207 247 -215 257
-7 10 -17 19 -22 19 -5 0 -43 -68 -84 -151z"/>
<path d="M9850 3513 c-152 -256 -849 -1546 -896 -1659 -10 -23 -11 -34 -3 -34
14 0 288 153 694 388 176 102 428 248 560 324 132 76 241 142 243 146 10 29
-540 872 -569 872 -4 0 -17 -17 -29 -37z"/>
<path d="M4838 2933 c-35 -39 -427 -740 -742 -1328 -258 -480 -253 -470 -236
-491 47 -56 935 -591 1570 -944 231 -129 317 -170 353 -170 47 0 518 250 857
455 119 71 160 102 160 119 0 27 -1213 1515 -1744 2140 -89 104 -170 200 -181
213 -20 24 -21 24 -37 6z"/>
</g>
</svg>
