<?xml version="1.0" encoding="UTF-8" standalone="no"?>
<svg
   xmlns:dc="http://purl.org/dc/elements/1.1/"
   xmlns:cc="http://creativecommons.org/ns#"
   xmlns:rdf="http://www.w3.org/1999/02/22-rdf-syntax-ns#"
   xmlns:svg="http://www.w3.org/2000/svg"
   xmlns="http://www.w3.org/2000/svg"
   xmlns:sodipodi="http://sodipodi.sourceforge.net/DTD/sodipodi-0.dtd"
   xmlns:inkscape="http://www.inkscape.org/namespaces/inkscape"
   version="1.0"
   width="1200.000000pt"
   height="1200.000000pt"
   viewBox="0 0 1200.000000 1200.000000"
   preserveAspectRatio="xMidYMid meet"
   id="svg4093"
   sodipodi:docname="logo.svg"
   inkscape:version="0.92.4 5da689c313, 2019-01-14">
  <defs
     id="defs4097" />
  <sodipodi:namedview
     pagecolor="#ffffff"
     bordercolor="#666666"
     borderopacity="1"
     objecttolerance="10"
     gridtolerance="10"
     guidetolerance="10"
     inkscape:pageopacity="0"
     inkscape:pageshadow="2"
     inkscape:window-width="1916"
     inkscape:window-height="1156"
     id="namedview4095"
     showgrid="false"
     inkscape:zoom="0.40883047"
     inkscape:cx="13.704202"
     inkscape:cy="801.68708"
     inkscape:window-x="1920"
     inkscape:window-y="20"
     inkscape:window-maximized="0"
     inkscape:current-layer="g4091" />
  <metadata
     id="metadata4065">
Created by potrace 1.15, written by Peter Selinger 2001-2017
<rdf:RDF>
  <cc:Work
     rdf:about="">
    <dc:format>image/svg+xml</dc:format>
    <dc:type
       rdf:resource="http://purl.org/dc/dcmitype/StillImage" />
    <dc:title></dc:title>
  </cc:Work>
</rdf:RDF>
</metadata>
  <g
     transform="translate(0.000000,1200.000000) scale(0.100000,-0.100000)"
     fill="#000000"
     stroke="none"
     id="g4091">
    <path
       d="m 4899.5277,11504.197 c -203.1478,-120.791 -387.0788,-221.365 -406.2954,-232.346 -21.962,-16.471 78.866,-145.245 312.2113,-491.145 183.931,-269.033 330.1746,-497.141 341.1556,-483.416 43.9238,46.67 576.5003,1221.633 562.7741,1243.594 -47.8436,26.278 -337.2518,170.618 -376.0978,192.167 -33.9073,-4.526 -221.4428,-117.221 -433.7478,-228.854 z"
       id="path4067"
       inkscape:connector-curvature="0"
       style="stroke-width:2.7452395"
       sodipodi:nodetypes="ccccccc"
       inkscape:export-filename="/home/devel/Downloads/path4077.png"
       inkscape:export-xdpi="72.078133"
       inkscape:export-ydpi="72.078133" />
    <path
       d="m 5555.6399,10785.944 -315.6666,-672.913 -184.593,0.847 c 0,0 0,0 -361.7456,518.332 -197.6572,288.25 -367.862,521.596 -378.843,524.34 -13.7262,0 -321.193,-175.694 -686.3098,-389.824 -365.1168,-214.128 -757.6861,-441.983 -870.2409,-507.868 -112.5548,-63.141 -700.0361,-406.296 -1303.9887,-757.6864 L 356.15652,8858.785 347.9208,8600.7328 342.43033,8342.6807 1536.6094,6887.7038 c 658.8575,-798.8648 1218.8864,-1476.9392 1243.5935,-1504.3915 46.6691,-43.9239 101.5738,63.1404 1158.491,2327.9624 l 1116.6864,2402.6033 184.593,-0.847 c 13.7262,-8.236 373.3166,-545.9746 787.8478,-1149.9261 414.5311,-603.9527 760.4312,-1089.8611 771.4122,-1078.8793 24.7071,24.7073 1257.3195,2295.0194 1249.0839,2300.5104 -5.4905,2.745 -2127.5605,1243.593 -2163.2486,1262.81 -8.2358,5.49 -156.4787,-293.74 -329.4287,-661.602 z"
       id="path4069"
       inkscape:connector-curvature="0"
       style="stroke-width:2.7452395"
       sodipodi:nodetypes="ccccccccccccccccccccc"
       inkscape:export-filename="/home/devel/Downloads/path4077.png"
       inkscape:export-xdpi="72.078133"
       inkscape:export-ydpi="72.078133" />
    <path
       d="M 7537.7027,8899.9637 6898.965,7704.6045 6716.0294,7690.3657 c 0,0 -33.6099,27.0671 -773.3108,1119.0047 C 5528.1875,9418.814 5176.7969,9915.702 5165.8159,9912.9571 5154.8349,9910.2123 4649.7108,8850.5492 4045.7582,7560.2874 3439.0603,6270.0245 2936.2847,5168.7331 2936.2847,5168.7331 l -194.5151,0.4505 -1180.4529,1441.2506 C 913.44011,7403.8081 375.3732,8051.6844 361.64701,8051.6844 c -10.98096,2.746 -16.47144,-1125.5478 -13.72621,-2500.912 l 8.23572,-2506.404 549.04787,-321.1931 c 301.97631,-175.6953 549.04791,-318.4477 551.79311,-315.7025 2.7452,2.7453 290.9954,614.9336 639.6407,1361.6387 348.6455,746.7052 636.8956,1391.8363 645.1314,1400.0721 l 194.5151,-0.4505 c 0,0 8.9739,-11.8772 714.159,-858.8094 392.5693,-477.6717 719.2527,-867.4957 727.4885,-867.4957 8.2357,0 529.8312,952.5981 1161.2363,2113.8341 631.4049,1163.9817 1168.6253,2134.1036 1176.8609,2134.1036 l 182.9356,14.2388 c 10.981,-13.7266 572.8519,-844.354 1239.9451,-1818.9133 667.0931,-974.5601 1227.122,-1787.151 1246.3387,-1806.3676 30.1976,-30.1977 118.0452,115.3 485.9072,782.3932 l 450.219,818.0816 v 1589.4927 1586.749 l -1051.4263,614.9333 c -579.2456,337.665 -1059.6624,614.9336 -1070.6434,614.9336 -10.9809,0 -307.4668,-532.576 -661.6026,-1185.9433 z"
       id="path4071"
       inkscape:connector-curvature="0"
       style="stroke-width:2.7452395"
       sodipodi:nodetypes="ccccccccccccccscccscccsccccccsc"
       inkscape:export-filename="/home/devel/Downloads/path4077.png"
       inkscape:export-xdpi="72.078133"
       inkscape:export-ydpi="72.078133" />
    <path
       style="stroke-width:2.7452395"
       d="m 4479.506,3294.1851 41.1786,-46.6691 c 19.3076,-21.8819 472.1812,-576.5002 1007.5029,-1227.1219 535.3217,-653.367 980.0504,-1185.94344 991.0314,-1185.94344 8.2357,0 389.8239,219.61914 851.0242,488.65254 l 834.5528,485.9074 543.5573,1002.0125 c 299.2311,549.0478 583.9964,1057.7625 583.9964,1057.7625 l 172.1074,4.4375 c 0,0 166.2966,-222.1568 336.5015,-471.9736 l 312.9575,-452.9645 82.357,49.4143 85.102,49.4143 8.236,1163.9815 c 2.745,639.6407 0,1158.491 -5.49,1150.2552 -5.491,-5.4904 -186.677,-332.1739 -400.8053,-724.7431 -214.1288,-392.5693 -418.8587,-763.3841 -418.8587,-763.3841 l -172.1074,-4.4375 -155.7391,221.519 c -82.3571,120.7905 -645.1313,941.617 -1254.5744,1831.0744 -606.6979,886.7121 -1109.0767,1611.4551 -1114.5671,1611.4551 -5.4905,0 -46.6691,-65.8848 -90.5929,-142.7515 C 6670.207,7310.4699 6181.5544,6410.0323 5627.0161,5391.548 5072.4777,4373.0642 4589.3156,3483.6067 4550.8822,3417.7208 l -71.3762,-123.5357 m -185.3711,-15.812 v 0 c -33.4031,36.1981 -39.7385,46.0097 -739.7746,902.5243 -370.6072,452.9645 -680.8193,823.5719 -689.055,826.3171 -8.2357,0 -296.4859,-601.2074 -642.386,-1334.1864 -516.1051,-1106.3315 -617.6789,-1339.6768 -587.4812,-1369.8744 21.9618,-19.2167 323.9382,-197.6572 669.8384,-398.0597 348.6453,-200.4024 700.036,-406.2954 782.3932,-455.7097 82.3572,-49.4143 159.2239,-82.3572 167.4596,-71.3762 10.981,10.981 244.3263,433.7477 518.8502,938.8718 274.524,505.124 512.5588,959.8867 520.1554,961.4932"
       id="path4073"
       inkscape:connector-curvature="0"
       sodipodi:nodetypes="cscscccccccccccsccccscscccccccccscsc"
       inkscape:export-filename="/home/devel/Downloads/path4077.png"
       inkscape:export-xdpi="72.078133"
       inkscape:export-ydpi="72.078133" />
    <path
       d="m 8954.2461,2863.1826 c -255.3072,-469.436 -458.455,-859.26 -452.9644,-864.7504 5.4904,-5.4906 337.6644,181.1858 738.4694,414.5311 398.0596,233.3453 738.4693,428.2573 752.1955,433.7478 24.7074,10.9809 -532.5764,867.4957 -562.7741,867.4957 -8.2357,0 -222.3643,-381.5884 -474.9264,-851.0242 z"
       id="path4075"
       inkscape:connector-curvature="0"
       style="stroke-width:2.7452395"
       inkscape:export-filename="/home/devel/Downloads/path4077.png"
       inkscape:export-xdpi="72.078133"
       inkscape:export-ydpi="72.078133" />
    <path
       d="M 3903.0058,2226.2871 C 3636.7175,1737.6344 3417.0984,1323.1032 3411.608,1303.8866 3400.627,1259.9628 5250.9183,175.59324 5336.0207,175.59324 c 65.8857,0 1018.4839,535.32167 1018.4839,571.00979 0,30.19757 -1921.6676,2366.39627 -1946.3747,2366.39627 -10.981,0 -238.8359,-400.805 -505.1241,-886.7122 z"
       id="path4077"
       inkscape:connector-curvature="0"
       style="stroke-width:2.7452395"
       inkscape:export-filename="/home/devel/Downloads/path4077.png"
       inkscape:export-xdpi="72.078133"
       inkscape:export-ydpi="72.078133" />
  </g>
</svg>
